ffmpeg started on 2016-12-12 at 02:23:17
Report written to "Output/theora/results/ffmpeg/old_town_cross_2160p502500k.log"
Command line:
Tools/ffmpeg/ffmpeg -benchmark -y -i Input/y4m/old_town_cross_2160p50.y4m -c:v libtheora -b:v 2500k -an Output/theora/encoded/old_town_cross_2160p502500k.mkv
ffmpeg version N-82227-gdb23fde Copyright (c) 2000-2016 the FFmpeg developers
  built with gcc 5.4.0 (Ubuntu 5.4.0-6ubuntu1~16.04.2) 20160609
  configuration: --prefix=/home/jaroslav/ffmpeg_build --pkg-config-flags=--static --extra-cflags=-I/home/jaroslav/ffmpeg_build/include --extra-ldflags=-L/home/jaroslav/ffmpeg_build/lib --bindir=/home/jaroslav/bin --enable-gpl --enable-libass --enable-libfdk-aac --enable-libfreetype --enable-libmp3lame --enable-libopus --enable-libtheora --enable-libvorbis --enable-libvpx --enable-libx264 --enable-libx265 --enable-nvenc --enable-libmfx --enable-libxvid --enable-libgsm --enable-libopencore-amrnb --enable-version3 --enable-nonfree
  libavutil      55. 35.100 / 55. 35.100
  libavcodec     57. 66.101 / 57. 66.101
  libavformat    57. 57.100 / 57. 57.100
  libavdevice    57.  2.100 / 57.  2.100
  libavfilter     6. 66.100 /  6. 66.100
  libswscale      4.  3.100 /  4.  3.100
  libswresample   2.  4.100 /  2.  4.100
  libpostproc    54.  2.100 / 54.  2.100
Input #0, yuv4mpegpipe, from 'Input/y4m/old_town_cross_2160p50.y4m':
  Duration: 00:00:10.00, start: 0.000000, bitrate: 4976642 kb/s
    Stream #0:0: Video: rawvideo (I420 / 0x30323449), yuv420p(progressive), 3840x2160, SAR 1:1 DAR 16:9, 50 fps, 50 tbr, 50 tbn, 50 tbc
Output #0, matroska, to 'Output/theora/encoded/old_town_cross_2160p502500k.mkv':
  Metadata:
    encoder         : Lavf57.57.100
    Stream #0:0: Video: theora (libtheora) (theo / 0x6F656874), yuv420p, 3840x2160 [SAR 1:1 DAR 16:9], q=2-31, 2500 kb/s, 50 fps, 1k tbn, 50 tbc
    Metadata:
      encoder         : Lavc57.66.101 libtheora
Stream mapping:
  Stream #0:0 -> #0:0 (rawvideo (native) -> theora (libtheora))
Press [q] to stop, [?] for help
frame=    3 fps=0.0 q=-0.0 size=       4kB time=00:00:00.04 bitrate= 779.5kbits/s speed=0.0565x    frame=    5 fps=3.7 q=-0.0 size=       4kB time=00:00:00.08 bitrate= 394.6kbits/s speed=0.0595x    frame=    7 fps=3.5 q=-0.0 size=       4kB time=00:00:00.12 bitrate= 264.1kbits/s speed=0.0605x    frame=    9 fps=3.4 q=-0.0 size=       4kB time=00:00:00.16 bitrate= 198.5kbits/s speed=0.0609x    frame=   11 fps=3.4 q=-0.0 size=       4kB time=00:00:00.20 bitrate= 159.0kbits/s speed=0.0612x    frame=   13 fps=3.3 q=-0.0 size=     189kB time=00:00:00.24 bitrate=6422.5kbits/s speed=0.0614x    frame=   16 fps=3.4 q=-0.0 size=     189kB time=00:00:00.30 bitrate=5142.3kbits/s speed=0.0637x    frame=   18 fps=3.4 q=-0.0 size=     189kB time=00:00:00.34 bitrate=4539.1kbits/s speed=0.0635x    frame=   20 fps=3.3 q=-0.0 size=     189kB time=00:00:00.38 bitrate=4062.6kbits/s speed=0.0634x    frame=   22 fps=3.3 q=-0.0 size=     189kB time=00:00:00.42 bitrate=3676.6kbits/s speed=0.0632x    frame=   24 fps=3.3 q=-0.0 size=     189kB time=00:00:00.46 bitrate=3357.6kbits/s speed=0.063x    frame=   26 fps=3.3 q=-0.0 size=     398kB time=00:00:00.50 bitrate=6501.1kbits/s speed=0.0641x    frame=   28 fps=3.3 q=-0.0 size=     398kB time=00:00:00.54 bitrate=6020.5kbits/s speed=0.0641x    frame=   30 fps=3.3 q=-0.0 size=     398kB time=00:00:00.58 bitrate=5606.0kbits/s speed=0.064x    frame=   32 fps=3.3 q=-0.0 size=     398kB time=00:00:00.62 bitrate=5244.9kbits/s speed=0.0639x    frame=   34 fps=3.3 q=-0.0 size=     398kB time=00:00:00.66 bitrate=4927.5kbits/s speed=0.0637x    frame=   36 fps=3.3 q=-0.0 size=     398kB time=00:00:00.70 bitrate=4646.3kbits/s speed=0.0636x    frame=   39 fps=3.3 q=-0.0 size=     504kB time=00:00:00.76 bitrate=5429.0kbits/s speed=0.0643x    frame=   41 fps=3.3 q=-0.0 size=     504kB time=00:00:00.80 bitrate=5157.9kbits/s speed=0.0643x    frame=   43 fps=3.3 q=-0.0 size=     504kB time=00:00:00.84 bitrate=4912.6kbits/s speed=0.0642x    frame=   45 fps=3.3 q=-0.0 size=     504kB time=00:00:00.88 bitrate=4689.5kbits/s speed=0.0641x    frame=   47 fps=3.3 q=-0.0 size=     504kB time=00:00:00.92 bitrate=4485.9kbits/s speed=0.064x    frame=   49 fps=3.3 q=-0.0 size=     575kB time=00:00:00.96 bitrate=4903.8kbits/s speed=0.0639x    frame=   52 fps=3.3 q=-0.0 size=     575kB time=00:00:01.02 bitrate=4615.6kbits/s speed=0.0645x    frame=   54 fps=3.3 q=-0.0 size=     575kB time=00:00:01.06 bitrate=4441.6kbits/s speed=0.0644x    frame=   56 fps=3.3 q=-0.0 size=     575kB time=00:00:01.10 bitrate=4280.2kbits/s speed=0.0643x    frame=   58 fps=3.3 q=-0.0 size=     575kB time=00:00:01.14 bitrate=4130.2kbits/s speed=0.0643x    frame=   60 fps=3.3 q=-0.0 size=     575kB time=00:00:01.18 bitrate=3990.3kbits/s speed=0.0642x    frame=   63 fps=3.3 q=-0.0 size=     646kB time=00:00:01.24 bitrate=4262.6kbits/s speed=0.0646x    frame=   65 fps=3.3 q=-0.0 size=     646kB time=00:00:01.28 bitrate=4129.5kbits/s speed=0.0646x    frame=   67 fps=3.3 q=-0.0 size=     646kB time=00:00:01.32 bitrate=4004.4kbits/s speed=0.0646x    frame=   69 fps=3.3 q=-0.0 size=     646kB time=00:00:01.36 bitrate=3886.7kbits/s speed=0.0645x    frame=   71 fps=3.3 q=-0.0 size=     646kB time=00:00:01.40 bitrate=3775.8kbits/s speed=0.0644x    frame=   73 fps=3.3 q=-0.0 size=     717kB time=00:00:01.44 bitrate=4075.8kbits/s speed=0.0643x    frame=   76 fps=3.3 q=-0.0 size=     717kB time=00:00:01.50 bitrate=3912.8kbits/s speed=0.0647x    frame=   78 fps=3.3 q=-0.0 size=     717kB time=00:00:01.54 bitrate=3811.3kbits/s speed=0.0647x    frame=   80 fps=3.3 q=-0.0 size=     717kB time=00:00:01.58 bitrate=3714.8kbits/s speed=0.0646x    frame=   82 fps=3.3 q=-0.0 size=     717kB time=00:00:01.62 bitrate=3623.2kbits/s speed=0.0646x    frame=   84 fps=3.3 q=-0.0 size=     717kB time=00:00:01.66 bitrate=3535.9kbits/s speed=0.0645x    frame=   87 fps=3.3 q=-0.0 size=     789kB time=00:00:01.72 bitrate=3753.4kbits/s speed=0.0648x    frame=   89 fps=3.3 q=-0.0 size=     789kB time=00:00:01.76 bitrate=3668.1kbits/s speed=0.0648x    frame=   91 fps=3.3 q=-0.0 size=     789kB time=00:00:01.80 bitrate=3586.7kbits/s speed=0.0648x    frame=   93 fps=3.3 q=-0.0 size=     789kB time=00:00:01.84 bitrate=3508.7kbits/s speed=0.0647x    frame=   95 fps=3.3 q=-0.0 size=     789kB time=00:00:01.88 bitrate=3434.1kbits/s speed=0.0647x    frame=   97 fps=3.3 q=-0.0 size=     860kB time=00:00:01.92 bitrate=3666.0kbits/s speed=0.0646x    frame=  100 fps=3.3 q=-0.0 size=     860kB time=00:00:01.98 bitrate=3555.0kbits/s speed=0.0649x    frame=  102 fps=3.3 q=-0.0 size=     860kB time=00:00:02.02 bitrate=3484.6kbits/s speed=0.0648x    frame=  104 fps=3.3 q=-0.0 size=     860kB time=00:00:02.06 bitrate=3417.0kbits/s speed=0.0648x    frame=  106 fps=3.3 q=-0.0 size=     860kB time=00:00:02.10 bitrate=3351.9kbits/s speed=0.0647x    frame=  108 fps=3.3 q=-0.0 size=     860kB time=00:00:02.14 bitrate=3289.3kbits/s speed=0.0647x    frame=  111 fps=3.3 q=-0.0 size=     931kB time=00:00:02.20 bitrate=3465.2kbits/s speed=0.0649x    frame=  113 fps=3.3 q=-0.0 size=     931kB time=00:00:02.24 bitrate=3403.3kbits/s speed=0.0649x    frame=  115 fps=3.3 q=-0.0 size=     931kB time=00:00:02.28 bitrate=3343.6kbits/s speed=0.0649x    frame=  117 fps=3.3 q=-0.0 size=     931kB time=00:00:02.32 bitrate=3286.0kbits/s speed=0.0648x    frame=  119 fps=3.3 q=-0.0 size=     931kB time=00:00:02.36 bitrate=3230.3kbits/s speed=0.0648x    frame=  121 fps=3.3 q=-0.0 size=    1003kB time=00:00:02.40 bitrate=3422.0kbits/s speed=0.0647x    frame=  124 fps=3.3 q=-0.0 size=    1003kB time=00:00:02.46 bitrate=3338.6kbits/s speed=0.065x    frame=  126 fps=3.3 q=-0.0 size=    1003kB time=00:00:02.50 bitrate=3285.2kbits/s speed=0.0649x    frame=  128 fps=3.3 q=-0.0 size=    1003kB time=00:00:02.54 bitrate=3233.5kbits/s speed=0.0649x    frame=  130 fps=3.3 q=-0.0 size=    1003kB time=00:00:02.58 bitrate=3183.4kbits/s speed=0.0648x    frame=  132 fps=3.3 q=-0.0 size=    1003kB time=00:00:02.62 bitrate=3134.8kbits/s speed=0.0648x    frame=  135 fps=3.3 q=-0.0 size=    1075kB time=00:00:02.68 bitrate=3283.6kbits/s speed=0.065x    frame=  137 fps=3.3 q=-0.0 size=    1075kB time=00:00:02.72 bitrate=3235.3kbits/s speed=0.0649x    frame=  139 fps=3.3 q=-0.0 size=    1075kB time=00:00:02.76 bitrate=3188.4kbits/s speed=0.0648x    frame=  141 fps=3.3 q=-0.0 size=    1075kB time=00:00:02.80 bitrate=3142.9kbits/s speed=0.0648x    frame=  143 fps=3.3 q=-0.0 size=    1075kB time=00:00:02.84 bitrate=3098.7kbits/s speed=0.0647x    frame=  145 fps=3.3 q=-0.0 size=    1146kB time=00:00:02.88 bitrate=3259.9kbits/s speed=0.0647x    frame=  147 fps=3.3 q=-0.0 size=    1146kB time=00:00:02.92 bitrate=3215.3kbits/s speed=0.0646x    frame=  149 fps=3.3 q=-0.0 size=    1146kB time=00:00:02.96 bitrate=3171.8kbits/s speed=0.0646x    frame=  151 fps=3.2 q=-0.0 size=    1146kB time=00:00:03.00 bitrate=3129.6kbits/s speed=0.0646x    frame=  153 fps=3.2 q=-0.0 size=    1146kB time=00:00:03.04 bitrate=3088.4kbits/s speed=0.0645x    frame=  155 fps=3.2 q=-0.0 size=    1146kB time=00:00:03.08 bitrate=3048.3kbits/s speed=0.0645x    frame=  157 fps=3.2 q=-0.0 size=    1218kB time=00:00:03.12 bitrate=3196.5kbits/s speed=0.0645x    frame=  160 fps=3.3 q=-0.0 size=    1218kB time=00:00:03.18 bitrate=3136.3kbits/s speed=0.0647x    frame=  162 fps=3.3 q=-0.0 size=    1218kB time=00:00:03.22 bitrate=3097.3kbits/s speed=0.0646x    frame=  164 fps=3.2 q=-0.0 size=    1218kB time=00:00:03.26 bitrate=3059.3kbits/s speed=0.0646x    frame=  166 fps=3.2 q=-0.0 size=    1218kB time=00:00:03.30 bitrate=3022.2kbits/s speed=0.0646x    frame=  168 fps=3.2 q=-0.0 size=    1218kB time=00:00:03.34 bitrate=2986.1kbits/s speed=0.0646x    frame=  171 fps=3.3 q=-0.0 size=    1321kB time=00:00:03.40 bitrate=3182.2kbits/s speed=0.0647x    frame=  173 fps=3.3 q=-0.0 size=    1321kB time=00:00:03.44 bitrate=3145.2kbits/s speed=0.0647x    frame=  175 fps=3.3 q=-0.0 size=    1321kB time=00:00:03.48 bitrate=3109.0kbits/s speed=0.0647x    frame=  177 fps=3.3 q=-0.0 size=    1321kB time=00:00:03.52 bitrate=3073.7kbits/s speed=0.0647x    frame=  179 fps=3.2 q=-0.0 size=    1321kB time=00:00:03.56 bitrate=3039.2kbits/s speed=0.0646x    frame=  181 fps=3.2 q=-0.0 size=    1393kB time=00:00:03.60 bitrate=3168.3kbits/s speed=0.0645x    frame=  184 fps=3.3 q=-0.0 size=    1393kB time=00:00:03.66 bitrate=3116.4kbits/s speed=0.0647x    frame=  186 fps=3.3 q=-0.0 size=    1393kB time=00:00:03.70 bitrate=3082.7kbits/s speed=0.0647x    frame=  188 fps=3.2 q=-0.0 size=    1393kB time=00:00:03.74 bitrate=3049.7kbits/s speed=0.0647x    frame=  190 fps=3.2 q=-0.0 size=    1393kB time=00:00:03.78 bitrate=3017.5kbits/s speed=0.0646x    frame=  192 fps=3.2 q=-0.0 size=    1393kB time=00:00:03.82 bitrate=2985.9kbits/s speed=0.0646x    frame=  195 fps=3.3 q=-0.0 size=    1464kB time=00:00:03.88 bitrate=3089.9kbits/s speed=0.0647x    frame=  197 fps=3.3 q=-0.0 size=    1464kB time=00:00:03.92 bitrate=3058.4kbits/s speed=0.0647x    frame=  199 fps=3.3 q=-0.0 size=    1464kB time=00:00:03.96 bitrate=3027.5kbits/s speed=0.0647x    frame=  201 fps=3.2 q=-0.0 size=    1464kB time=00:00:04.00 bitrate=2997.2kbits/s speed=0.0647x    frame=  203 fps=3.2 q=-0.0 size=    1464kB time=00:00:04.04 bitrate=2967.5kbits/s speed=0.0646x    frame=  205 fps=3.2 q=-0.0 size=    1536kB time=00:00:04.08 bitrate=3083.0kbits/s speed=0.0646x    frame=  208 fps=3.3 q=-0.0 size=    1536kB time=00:00:04.14 bitrate=3038.3kbits/s speed=0.0647x    frame=  210 fps=3.2 q=-0.0 size=    1536kB time=00:00:04.18 bitrate=3009.2kbits/s speed=0.0647x    frame=  212 fps=3.2 q=-0.0 size=    1536kB time=00:00:04.22 bitrate=2980.7kbits/s speed=0.0647x    frame=  214 fps=3.2 q=-0.0 size=    1536kB time=00:00:04.26 bitrate=2952.7kbits/s speed=0.0646x    frame=  216 fps=3.2 q=-0.0 size=    1536kB time=00:00:04.30 bitrate=2925.3kbits/s speed=0.0646x    frame=  219 fps=3.3 q=-0.0 size=    1608kB time=00:00:04.36 bitrate=3019.9kbits/s speed=0.0647x    frame=  221 fps=3.2 q=-0.0 size=    1608kB time=00:00:04.40 bitrate=2992.5kbits/s speed=0.0646x    frame=  223 fps=3.2 q=-0.0 size=    1608kB time=00:00:04.44 bitrate=2965.5kbits/s speed=0.0644x    frame=  225 fps=3.2 q=-0.0 size=    1608kB time=00:00:04.48 bitrate=2939.0kbits/s speed=0.0643x    frame=  227 fps=3.2 q=-0.0 size=    1608kB time=00:00:04.52 bitrate=2913.0kbits/s speed=0.0643x    frame=  229 fps=3.2 q=-0.0 size=    1679kB time=00:00:04.56 bitrate=3015.9kbits/s speed=0.0643x    frame=  232 fps=3.2 q=-0.0 size=    1679kB time=00:00:04.62 bitrate=2976.8kbits/s speed=0.0644x    frame=  234 fps=3.2 q=-0.0 size=    1679kB time=00:00:04.66 bitrate=2951.2kbits/s speed=0.0644x    frame=  236 fps=3.2 q=-0.0 size=    1679kB time=00:00:04.70 bitrate=2926.1kbits/s speed=0.0644x    frame=  238 fps=3.2 q=-0.0 size=    1679kB time=00:00:04.74 bitrate=2901.4kbits/s speed=0.0644x    frame=  240 fps=3.2 q=-0.0 size=    1679kB time=00:00:04.78 bitrate=2877.1kbits/s speed=0.0641x    frame=  242 fps=3.2 q=-0.0 size=    1751kB time=00:00:04.82 bitrate=2975.0kbits/s speed=0.0642x    frame=  244 fps=3.2 q=-0.0 size=    1751kB time=00:00:04.86 bitrate=2950.5kbits/s speed=0.0642x    frame=  245 fps=3.2 q=-0.0 size=    1751kB time=00:00:04.88 bitrate=2938.4kbits/s speed=0.0639x    frame=  247 fps=3.2 q=-0.0 size=    1751kB time=00:00:04.92 bitrate=2914.5kbits/s speed=0.0639x    frame=  249 fps=3.2 q=-0.0 size=    1751kB time=00:00:04.96 bitrate=2891.0kbits/s speed=0.0639x    frame=  251 fps=3.2 q=-0.0 size=    1751kB time=00:00:05.00 bitrate=2867.9kbits/s speed=0.0639x    frame=  253 fps=3.2 q=-0.0 size=    1824kB time=00:00:05.04 bitrate=2963.9kbits/s speed=0.0638x    frame=  256 fps=3.2 q=-0.0 size=    1824kB time=00:00:05.10 bitrate=2929.1kbits/s speed=0.064x    frame=  258 fps=3.2 q=-0.0 size=    1824kB time=00:00:05.14 bitrate=2906.3kbits/s speed=0.0639x    frame=  260 fps=3.2 q=-0.0 size=    1824kB time=00:00:05.18 bitrate=2883.8kbits/s speed=0.0639x    frame=  262 fps=3.2 q=-0.0 size=    1824kB time=00:00:05.22 bitrate=2861.7kbits/s speed=0.0637x    frame=  263 fps=3.2 q=-0.0 size=    1824kB time=00:00:05.24 bitrate=2850.8kbits/s speed=0.0634x    frame=  265 fps=3.2 q=-0.0 size=    1897kB time=00:00:05.28 bitrate=2942.9kbits/s speed=0.0634x    frame=  268 fps=3.2 q=-0.0 size=    1897kB time=00:00:05.34 bitrate=2909.9kbits/s speed=0.0635x    frame=  270 fps=3.2 q=-0.0 size=    1897kB time=00:00:05.38 bitrate=2888.2kbits/s speed=0.0635x    frame=  272 fps=3.2 q=-0.0 size=    1897kB time=00:00:05.42 bitrate=2866.9kbits/s speed=0.0635x    frame=  274 fps=3.2 q=-0.0 size=    1897kB time=00:00:05.46 bitrate=2845.9kbits/s speed=0.0635x    frame=  276 fps=3.2 q=-0.0 size=    1897kB time=00:00:05.50 bitrate=2825.2kbits/s speed=0.0635x    frame=  278 fps=3.2 q=-0.0 size=    1970kB time=00:00:05.54 bitrate=2912.1kbits/s speed=0.0636x    frame=  280 fps=3.2 q=-0.0 size=    1970kB time=00:00:05.58 bitrate=2891.2kbits/s speed=0.0636x    frame=  282 fps=3.2 q=-0.0 size=    1970kB time=00:00:05.62 bitrate=2870.6kbits/s speed=0.0635x    frame=  283 fps=3.2 q=-0.0 size=    1970kB time=00:00:05.64 bitrate=2860.4kbits/s speed=0.0633x    frame=  285 fps=3.2 q=-0.0 size=    1970kB time=00:00:05.68 bitrate=2840.3kbits/s speed=0.0633x    frame=  287 fps=3.2 q=-0.0 size=    1970kB time=00:00:05.72 bitrate=2820.4kbits/s speed=0.0633x    frame=  289 fps=3.2 q=-0.0 size=    2042kB time=00:00:05.76 bitrate=2903.9kbits/s speed=0.0633x    frame=  292 fps=3.2 q=-0.0 size=    2042kB time=00:00:05.82 bitrate=2874.0kbits/s speed=0.0634x    frame=  294 fps=3.2 q=-0.0 size=    2042kB time=00:00:05.86 bitrate=2854.4kbits/s speed=0.0634x    frame=  296 fps=3.2 q=-0.0 size=    2042kB time=00:00:05.90 bitrate=2835.0kbits/s speed=0.0634x    frame=  298 fps=3.2 q=-0.0 size=    2042kB time=00:00:05.94 bitrate=2815.9kbits/s speed=0.0634x    frame=  300 fps=3.2 q=-0.0 size=    2042kB time=00:00:05.98 bitrate=2797.1kbits/s speed=0.0633x    frame=  302 fps=3.2 q=-0.0 size=    2114kB time=00:00:06.02 bitrate=2876.0kbits/s speed=0.0634x    frame=  304 fps=3.2 q=-0.0 size=    2114kB time=00:00:06.06 bitrate=2857.0kbits/s speed=0.0634x    frame=  306 fps=3.2 q=-0.0 size=    2114kB time=00:00:06.10 bitrate=2838.2kbits/s speed=0.0634x    frame=  308 fps=3.2 q=-0.0 size=    2114kB time=00:00:06.14 bitrate=2819.8kbits/s speed=0.0634x    frame=  309 fps=3.2 q=-0.0 size=    2114kB time=00:00:06.16 bitrate=2810.6kbits/s speed=0.0632x    frame=  311 fps=3.2 q=-0.0 size=    2114kB time=00:00:06.20 bitrate=2792.5kbits/s speed=0.0631x    frame=  313 fps=3.2 q=-0.0 size=    2185kB time=00:00:06.24 bitrate=2867.6kbits/s speed=0.0631x    frame=  316 fps=3.2 q=-0.0 size=    2185kB time=00:00:06.30 bitrate=2840.3kbits/s speed=0.0632x    frame=  317 fps=3.2 q=-0.0 size=    2185kB time=00:00:06.32 bitrate=2831.3kbits/s speed=0.063x    frame=  319 fps=3.2 q=-0.0 size=    2185kB time=00:00:06.36 bitrate=2813.5kbits/s speed=0.063x    frame=  321 fps=3.2 q=-0.0 size=    2185kB time=00:00:06.40 bitrate=2795.9kbits/s speed=0.0629x    frame=  323 fps=3.2 q=-0.0 size=    2185kB time=00:00:06.44 bitrate=2778.6kbits/s speed=0.0629x    frame=  325 fps=3.2 q=-0.0 size=    2256kB time=00:00:06.48 bitrate=2851.6kbits/s speed=0.0628x    frame=  328 fps=3.2 q=-0.0 size=    2256kB time=00:00:06.54 bitrate=2825.5kbits/s speed=0.0629x    frame=  330 fps=3.2 q=-0.0 size=    2256kB time=00:00:06.58 bitrate=2808.3kbits/s speed=0.0629x    frame=  332 fps=3.2 q=-0.0 size=    2256kB time=00:00:06.62 bitrate=2791.3kbits/s speed=0.0629x    frame=  334 fps=3.2 q=-0.0 size=    2256kB time=00:00:06.66 bitrate=2774.6kbits/s speed=0.0629x    frame=  336 fps=3.2 q=-0.0 size=    2256kB time=00:00:06.70 bitrate=2758.0kbits/s speed=0.0629x    frame=  338 fps=3.2 q=-0.0 size=    2327kB time=00:00:06.74 bitrate=2828.5kbits/s speed=0.063x    frame=  340 fps=3.2 q=-0.0 size=    2327kB time=00:00:06.78 bitrate=2811.8kbits/s speed=0.063x    frame=  342 fps=3.1 q=-0.0 size=    2327kB time=00:00:06.82 bitrate=2795.3kbits/s speed=0.0627x    frame=  344 fps=3.1 q=-0.0 size=    2327kB time=00:00:06.86 bitrate=2779.0kbits/s speed=0.0627x    frame=  345 fps=3.1 q=-0.0 size=    2327kB time=00:00:06.88 bitrate=2770.9kbits/s speed=0.0626x    frame=  347 fps=3.1 q=-0.0 size=    2327kB time=00:00:06.92 bitrate=2754.9kbits/s speed=0.0626x    frame=  349 fps=3.1 q=-0.0 size=    2400kB time=00:00:06.96 bitrate=2824.2kbits/s speed=0.0625x    frame=  351 fps=3.1 q=-0.0 size=    2400kB time=00:00:07.00 bitrate=2808.1kbits/s speed=0.0625x    frame=  353 fps=3.1 q=-0.0 size=    2400kB time=00:00:07.04 bitrate=2792.1kbits/s speed=0.0625x    frame=  354 fps=3.1 q=-0.0 size=    2400kB time=00:00:07.06 bitrate=2784.2kbits/s speed=0.0624x    frame=  356 fps=3.1 q=-0.0 size=    2400kB time=00:00:07.10 bitrate=2768.5kbits/s speed=0.0623x    frame=  357 fps=3.1 q=-0.0 size=    2400kB time=00:00:07.12 bitrate=2760.7kbits/s speed=0.0622x    frame=  359 fps=3.1 q=-0.0 size=    2400kB time=00:00:07.16 bitrate=2745.3kbits/s speed=0.062x    frame=  360 fps=3.1 q=-0.0 size=    2400kB time=00:00:07.18 bitrate=2737.7kbits/s speed=0.0617x    frame=  361 fps=3.1 q=-0.0 size=    2471kB time=00:00:07.20 bitrate=2811.1kbits/s speed=0.0616x    frame=  363 fps=3.1 q=-0.0 size=    2471kB time=00:00:07.24 bitrate=2795.5kbits/s speed=0.0614x    frame=  365 fps=3.1 q=-0.0 size=    2471kB time=00:00:07.28 bitrate=2780.2kbits/s speed=0.0614x    frame=  367 fps=3.1 q=-0.0 size=    2471kB time=00:00:07.32 bitrate=2765.0kbits/s speed=0.0612x    frame=  369 fps=3.1 q=-0.0 size=    2471kB time=00:00:07.36 bitrate=2750.0kbits/s speed=0.0612x    frame=  371 fps=3.1 q=-0.0 size=    2471kB time=00:00:07.40 bitrate=2735.1kbits/s speed=0.0612x    frame=  373 fps=3.1 q=-0.0 size=    2544kB time=00:00:07.44 bitrate=2800.5kbits/s speed=0.0612x    frame=  376 fps=3.1 q=-0.0 size=    2544kB time=00:00:07.50 bitrate=2778.1kbits/s speed=0.0613x    frame=  378 fps=3.1 q=-0.0 size=    2544kB time=00:00:07.54 bitrate=2763.4kbits/s speed=0.0613x    frame=  380 fps=3.1 q=-0.0 size=    2544kB time=00:00:07.58 bitrate=2748.8kbits/s speed=0.0613x    frame=  382 fps=3.1 q=-0.0 size=    2544kB time=00:00:07.62 bitrate=2734.4kbits/s speed=0.0613x    frame=  384 fps=3.1 q=-0.0 size=    2544kB time=00:00:07.66 bitrate=2720.1kbits/s speed=0.0613x    frame=  385 fps=3.1 q=-0.0 size=    2618kB time=00:00:07.68 bitrate=2791.7kbits/s speed=0.0612x    frame=  387 fps=3.1 q=-0.0 size=    2618kB time=00:00:07.72 bitrate=2777.2kbits/s speed=0.0613x    frame=  389 fps=3.1 q=-0.0 size=    2618kB time=00:00:07.76 bitrate=2762.9kbits/s speed=0.0613x    frame=  391 fps=3.1 q=-0.0 size=    2618kB time=00:00:07.80 bitrate=2748.8kbits/s speed=0.0613x    frame=  393 fps=3.1 q=-0.0 size=    2618kB time=00:00:07.84 bitrate=2734.7kbits/s speed=0.0613x    frame=  395 fps=3.1 q=-0.0 size=    2618kB time=00:00:07.88 bitrate=2720.9kbits/s speed=0.0613x    frame=  397 fps=3.1 q=-0.0 size=    2691kB time=00:00:07.92 bitrate=2783.5kbits/s speed=0.0612x    frame=  399 fps=3.1 q=-0.0 size=    2691kB time=00:00:07.96 bitrate=2769.5kbits/s speed=0.061x    frame=  401 fps=3.1 q=-0.0 size=    2691kB time=00:00:08.00 bitrate=2755.7kbits/s speed=0.061x    frame=  403 fps=3.1 q=-0.0 size=    2691kB time=00:00:08.04 bitrate=2742.0kbits/s speed=0.061x    frame=  405 fps=3.1 q=-0.0 size=    2691kB time=00:00:08.08 bitrate=2728.4kbits/s speed=0.061x    frame=  406 fps=3.1 q=-0.0 size=    2691kB time=00:00:08.10 bitrate=2721.7kbits/s speed=0.0609x    frame=  408 fps=3.1 q=-0.0 size=    2691kB time=00:00:08.14 bitrate=2708.3kbits/s speed=0.0609x    frame=  410 fps=3.1 q=-0.0 size=    2766kB time=00:00:08.18 bitrate=2769.5kbits/s speed=0.0609x    frame=  412 fps=3.1 q=-0.0 size=    2766kB time=00:00:08.22 bitrate=2756.1kbits/s speed=0.0609x    frame=  414 fps=3.1 q=-0.0 size=    2766kB time=00:00:08.26 bitrate=2742.7kbits/s speed=0.0609x    frame=  416 fps=3.1 q=-0.0 size=    2766kB time=00:00:08.30 bitrate=2729.5kbits/s speed=0.0609x    frame=  418 fps=3.1 q=-0.0 size=    2766kB time=00:00:08.34 bitrate=2716.4kbits/s speed=0.0609x    frame=  420 fps=3.1 q=-0.0 size=    2766kB time=00:00:08.38 bitrate=2703.4kbits/s speed=0.0609x    frame=  422 fps=3.0 q=-0.0 size=    2841kB time=00:00:08.42 bitrate=2763.3kbits/s speed=0.0608x    frame=  424 fps=3.0 q=-0.0 size=    2841kB time=00:00:08.46 bitrate=2750.2kbits/s speed=0.0608x    frame=  426 fps=3.0 q=-0.0 size=    2841kB time=00:00:08.50 bitrate=2737.3kbits/s speed=0.0608x    frame=  428 fps=3.0 q=-0.0 size=    2841kB time=00:00:08.54 bitrate=2724.4kbits/s speed=0.0608x    frame=  430 fps=3.0 q=-0.0 size=    2841kB time=00:00:08.58 bitrate=2711.7kbits/s speed=0.0608x    frame=  432 fps=3.0 q=-0.0 size=    2841kB time=00:00:08.62 bitrate=2699.2kbits/s speed=0.0608x    frame=  434 fps=3.0 q=-0.0 size=    2915kB time=00:00:08.66 bitrate=2757.5kbits/s speed=0.0607x    frame=  436 fps=3.0 q=-0.0 size=    2915kB time=00:00:08.70 bitrate=2744.8kbits/s speed=0.0607x    frame=  438 fps=3.0 q=-0.0 size=    2915kB time=00:00:08.74 bitrate=2732.2kbits/s speed=0.0607x    frame=  440 fps=3.0 q=-0.0 size=    2915kB time=00:00:08.78 bitrate=2719.8kbits/s speed=0.0607x    frame=  442 fps=3.0 q=-0.0 size=    2915kB time=00:00:08.82 bitrate=2707.4kbits/s speed=0.0607x    frame=  444 fps=3.0 q=-0.0 size=    2915kB time=00:00:08.86 bitrate=2695.2kbits/s speed=0.0607x    frame=  446 fps=3.0 q=-0.0 size=    2989kB time=00:00:08.90 bitrate=2750.7kbits/s speed=0.0608x    frame=  448 fps=3.0 q=-0.0 size=    2989kB time=00:00:08.94 bitrate=2738.4kbits/s speed=0.0608x    frame=  450 fps=3.0 q=-0.0 size=    2989kB time=00:00:08.98 bitrate=2726.2kbits/s speed=0.0608x    frame=  452 fps=3.0 q=-0.0 size=    2989kB time=00:00:09.02 bitrate=2714.2kbits/s speed=0.0608x    frame=  453 fps=3.0 q=-0.0 size=    2989kB time=00:00:09.04 bitrate=2708.1kbits/s speed=0.0606x    frame=  455 fps=3.0 q=-0.0 size=    2989kB time=00:00:09.08 bitrate=2696.2kbits/s speed=0.0606x    frame=  457 fps=3.0 q=-0.0 size=    3063kB time=00:00:09.12 bitrate=2750.8kbits/s speed=0.0606x    frame=  460 fps=3.0 q=-0.0 size=    3063kB time=00:00:09.18 bitrate=2732.8kbits/s speed=0.0607x    frame=  462 fps=3.0 q=-0.0 size=    3063kB time=00:00:09.22 bitrate=2720.9kbits/s speed=0.0607x    frame=  464 fps=3.0 q=-0.0 size=    3063kB time=00:00:09.26 bitrate=2709.2kbits/s speed=0.0607x    frame=  466 fps=3.0 q=-0.0 size=    3063kB time=00:00:09.30 bitrate=2697.5kbits/s speed=0.0607x    frame=  468 fps=3.0 q=-0.0 size=    3063kB time=00:00:09.34 bitrate=2686.0kbits/s speed=0.0607x    frame=  470 fps=3.0 q=-0.0 size=    3138kB time=00:00:09.38 bitrate=2739.9kbits/s speed=0.0608x    frame=  472 fps=3.0 q=-0.0 size=    3138kB time=00:00:09.42 bitrate=2728.3kbits/s speed=0.0608x    frame=  474 fps=3.0 q=-0.0 size=    3138kB time=00:00:09.46 bitrate=2716.7kbits/s speed=0.0608x    frame=  476 fps=3.0 q=-0.0 size=    3138kB time=00:00:09.50 bitrate=2705.3kbits/s speed=0.0608x    frame=  478 fps=3.0 q=-0.0 size=    3138kB time=00:00:09.54 bitrate=2693.9kbits/s speed=0.0608x    frame=  480 fps=3.0 q=-0.0 size=    3138kB time=00:00:09.58 bitrate=2682.7kbits/s speed=0.0607x    frame=  482 fps=3.0 q=-0.0 size=    3212kB time=00:00:09.62 bitrate=2734.6kbits/s speed=0.0608x    frame=  484 fps=3.0 q=-0.0 size=    3212kB time=00:00:09.66 bitrate=2723.3kbits/s speed=0.0607x    frame=  486 fps=3.0 q=-0.0 size=    3212kB time=00:00:09.70 bitrate=2712.1kbits/s speed=0.0606x    frame=  488 fps=3.0 q=-0.0 size=    3212kB time=00:00:09.74 bitrate=2700.9kbits/s speed=0.0606x    frame=  489 fps=3.0 q=-0.0 size=    3212kB time=00:00:09.76 bitrate=2695.4kbits/s speed=0.0606x    frame=  491 fps=3.0 q=-0.0 size=    3212kB time=00:00:09.80 bitrate=2684.4kbits/s speed=0.0604x    frame=  493 fps=3.0 q=-0.0 size=    3286kB time=00:00:09.84 bitrate=2735.2kbits/s speed=0.0604x    frame=  495 fps=3.0 q=-0.0 size=    3286kB time=00:00:09.88 bitrate=2724.1kbits/s speed=0.0604x    frame=  497 fps=3.0 q=-0.0 size=    3286kB time=00:00:09.92 bitrate=2713.2kbits/s speed=0.0602x    frame=  499 fps=3.0 q=-0.0 size=    3286kB time=00:00:09.96 bitrate=2702.3kbits/s speed=0.0602x    frame=  500 fps=3.0 q=-0.0 size=    3286kB time=00:00:09.98 bitrate=2696.8kbits/s speed=0.0601x    frame=  500 fps=3.0 q=-0.0 Lsize=    3358kB time=00:00:09.98 bitrate=2756.4kbits/s speed=0.0601x    
video:3350kB audio:0kB subtitle:0kB other streams:0kB global headers:3kB muxing overhead: 0.257366%
bench: utime=142.732s
bench: maxrss=159948kB
